<?xml version="1.0" encoding="utf-8"?>
<!-- Generator: Adobe Illustrator 19.1.0, SVG Export Plug-In . SVG Version: 6.00 Build 0)  -->
<svg version="1.1" id="Layer_1" xmlns="http://www.w3.org/2000/svg" xmlns:xlink="http://www.w3.org/1999/xlink" x="0px" y="0px"
	 viewBox="0 0 352.9 347.6" style="enable-background:new 0 0 352.9 347.6;" xml:space="preserve">
<style type="text/css">
	.st0{fill:#8C471F;}
	.st1{fill:#FCE8C5;}
	.st2{fill:#E5C697;}
	.st3{fill:#CE8460;}
	.st4{fill:#F4DBB3;}
</style>
<g>
	<path class="st0" d="M350.7,178.9c-5.6-3-8.9-7.9-10.5-13.9c-0.8-3.1-0.9-6.4-1.7-9.4c-1-3.8,0.5-6.7,2.7-9.6
		c0.8-1.1,1.6-2.2,2.6-3.1c1.5-1.4,1.6-3.1,1.3-4.9c-0.5-2.4-1.2-4.7-1.8-7.1c-0.4-1.7-1.4-2.7-3.2-3.1c-2.2-0.4-4.4-1.1-6.6-1.8
		c-2.2-0.6-3.5-2-4.3-4.2c-1.1-3.3-2.5-6.5-3.8-9.6c-2.6-6-2.3-12,0.5-17.6c1.7-3.2,1.7-5.8-0.5-8.6c-0.4-0.5-0.7-1-0.9-1.5
		c-1.7-4.1-4.3-5.9-9.2-5.2c-5.4,0.8-10.4-1-13.7-5.8c-1.1-1.4-1.9-2.2-2.7-3.6c-4.3-5.6-6-11.8-4.5-18.8c0.4-2.1,0.3-3.9-1.6-5.4
		c-2.2-1.8-4.4-3.7-6.5-5.7c-1.4-1.4-2.7-1.5-4.5-0.6c-4.3,2.2-9.1,3.2-13.7,1.7c-3.3-1.1-6.3-3.2-9.2-5.1c-2-1.4-3.8-3.2-5.4-5.1
		c-2.8-3.4-3.1-7.7-3.6-11.9c-0.1-1-0.8-2.3-1.6-2.7c-3.3-1.7-6.7-3.2-10.2-4.5c-0.6-0.2-1.7,0.2-2.4,0.7c-1.9,1.3-3.6,3.2-5.7,4.2
		c-4.5,2.2-9.2,3.5-14.3,1.6c-3.4-1.3-7.3-1.6-10.5-3.3c-4.5-2.4-6.2-7.2-7.8-11.7c-0.5-1.5-1.3-2.2-2.9-2.3
		c-3.2-0.2-6.4-0.4-9.6-0.7c-1.7-0.2-2.6,0.4-3.2,2c-1.9,4.2-5,7.2-9,9.5c-3.5,2-7.2,1.6-10.8,2.1c-6.6,0.8-12.1-1.5-16.4-6.5
		c-4.8-5.4-2.6-4.4-10.2-3.4c-5,0.7-7.6,3-8.6,7.9c-2.1,10-10.1,13.3-18.7,15.4c-6.3,1.5-11.8-1.1-16.8-4.6c-1.3-0.9-2.4-1-3.7-0.1
		c-2.4,1.5-5,2.9-7.3,4.5c-0.8,0.6-1.4,1.8-1.5,2.8c-0.3,3.4,0,6.8-0.5,10.1c-0.4,3-1.1,6.2-3.8,8.3c-3,2.4-5.8,4.9-8.8,7.3
		c-0.7,0.6-1.6,1-2.4,1.2c-4.7,1.2-9.4,1-14-0.3c-2.6-0.7-4.5-0.3-6.2,2c-1.3,1.8-2.8,3.4-4.3,5c-1.1,1.2-1.3,2.4-0.6,4.1
		c1.3,3.2,2.4,6.5,3.2,9.8c0.8,2.9,0.4,5.8-1.5,8.4c-1.9,2.6-3.7,5.3-5.1,8.2c-1.8,3.9-5.2,5.6-8.9,6.8c-2,0.6-4.2,0.8-6.2,0.8
		c-3.2,0-5.5,0.9-6.3,4.3c-0.4,1.6-1.2,3.1-1.7,4.7c-0.7,2.1-0.6,3.9,1.3,5.7c1.6,1.5,3,3.5,3.9,5.5c1.8,3.9,2.8,8,1.3,12.5
		c-1.2,3.3-1.5,6.9-2.4,10.3c-0.3,1.3-0.9,2.9-2,3.6c-2.9,1.9-6,3.6-9.2,4.9c-2.2,0.9-3.6,2.2-3.8,4.5c-0.2,2.4-0.2,4.9-0.4,7.3
		c-0.2,1.9,0.6,3.1,2.3,4c4.3,2.3,7.7,5.7,9.1,10.4c1.2,4.3,1.1,9,2.2,13.4c1.1,4.5-0.1,8.1-3.3,11c-2.8,2.6-2.8,5.5-1.9,8.8
		c0.5,1.6,0.7,3.4,1.5,4.8c0.6,1.2,1.9,2.1,3.1,2.8c1,0.5,2.3,0.5,3.4,0.7c2.2,0.4,3.4,1.5,4.2,3.8c2,5.8,4.1,11.6,6.8,17.1
		c1.8,3.6,2.2,7.1,0.2,10.2c-3.1,4.9-1.4,8.7,1.5,12.6c0.2,0.3,0.4,0.6,0.5,0.9c1.3,3.4,3.9,4,7.1,3.2c0.2,0,0.3-0.1,0.5-0.1
		c3.3-0.1,6.1,0.1,8.3,3.3c2.9,4.2,6.2,8.2,9.9,11.8c4,3.9,4.3,8.3,3.2,13.2c-0.5,2.1-0.4,3.9,1.5,5.4c2.4,1.9,4.6,4.2,7.1,6.1
		c0.8,0.6,2.3,0.6,3.4,0.4c2.3-0.5,4.5-1.5,6.7-2.1c2.1-0.6,4-0.2,5.9,1.1c4.4,3,8.9,5.9,13.6,8.2c3.1,1.6,4.5,3.9,5.2,7
		c0.3,1.4,0.7,2.8,0.6,4.2c-0.2,3.1,1.4,4.8,4.1,5.8c1.2,0.4,2.4,0.9,3.5,1.6c3.9,2.5,7.2,2.3,10.2-1.5c0.3-0.3,0.7-0.5,1-0.8
		c3.5-2.2,7-3.4,11.3-2c3.7,1.2,7.5,2.2,11.3,2.6c4.8,0.5,8.3,2.8,9.3,7.2c1.8,7.4,7.1,7.9,13.1,8c2.8,0.1,4.2-0.7,5.5-3.3
		c2.9-5.6,7.3-9.4,14.2-9.2c2,0,4.1,0,6.1-0.5c5.7-1.3,11,0.2,14.1,4.6c4,5.6,8.3,5.6,14.1,3.9c2.8-0.8,4.5-1.8,5.1-4.8
		c1.7-7.9,5.8-13.9,14.2-16.1c0.1,0,0.2-0.1,0.2-0.1c6.6-3.4,13.1-2.7,19,1.2c3.8,2.5,6.5,2.3,10.2,0c3.8-2.4,6.8-4.6,5.6-8.1
		c-1.1-10.9,3.5-17.4,10.9-22.3c4.9-3.2,10.6-3.6,15.8-2c5.1,1.6,7.8-0.4,10.9-3.9c2.8-3.1,3.2-5.5,1.5-9.5
		c-5.2-11.9-1.6-20.9,8.6-28.1c4-2.8,8.8-3.2,13.6-3.3c1.6,0,2.4-0.7,3-2.1c0.8-2.3,1.8-4.5,2.7-6.8c0.8-2.1,0.5-3.9-1.3-5.4
		c-1.1-0.9-2-2.1-2.7-3.3c-4.6-8-4.6-16.3-1.2-24.8c0.4-1.1,1.2-2,2-2.9c2.7-3.1,6.1-5,10.1-5.9c2.5-0.6,4-2.1,4-4.8
		c0.1-2.4,0.1-4.9,0.3-7.3C353,180.9,352.3,179.8,350.7,178.9z M176.4,316.5c-78.8,0-142.7-63.9-142.7-142.7
		C33.7,95,97.6,31,176.4,31c78.8,0,142.7,63.9,142.7,142.7C319.2,252.6,255.3,316.5,176.4,316.5z"/>
	<path class="st0" d="M227.8,52.2c-16.3-6.9-33.6-10.4-51.4-10.4c-17.8,0-35.1,3.5-51.4,10.4c-15.7,6.6-29.8,16.2-42,28.3
		s-21.6,26.2-28.3,42c-6.9,16.3-10.4,33.6-10.4,51.4s3.5,35.1,10.4,51.4c6.6,15.7,16.2,29.8,28.3,42c12.1,12.1,26.2,21.6,42,28.3
		c16.3,6.9,33.6,10.4,51.4,10.4c17.8,0,35.1-3.5,51.4-10.4c15.7-6.6,29.8-16.2,42-28.3c12.1-12.1,21.6-26.2,28.3-42
		c6.9-16.3,10.4-33.6,10.4-51.4s-3.5-35.1-10.4-51.4c-6.6-15.7-16.2-29.8-28.3-42C257.7,68.3,243.5,58.8,227.8,52.2z"/>
</g>
<g>
	<path class="st1" d="M168.3,200.4c-3.7,1-7.2,2.6-10.8,3.9c-22,8.3-44.1,16.6-66.1,24.9c-3.8,1.4-6.3,0.2-7.5-3.7
		c-3.7-12-7.3-23.9-11-35.9c-0.2-0.5-0.2-1.1-0.6-1.5c0-0.9,0-1.9,0-2.8c1.1-2.2,2.9-3.1,5.3-3.6c23.7-4.9,47.3-9.8,71-14.7
		c5.4-1.1,10.8-2.3,16.2-3.5c1.5,0,2.9-0.6,4.3-0.8c3.6-0.6,7.1-1.7,10.7-2.1c-0.3,0.6-0.5,1.1-0.8,1.7c-2.9,6.1-3.3,12.3-0.6,18.5
		c2.2,5.2,6,8.9,11,11.5c-3.5,1.3-7,2.7-10.4,4C175.3,197.7,171.7,198.7,168.3,200.4z"/>
	<path class="st2" d="M200,265.2c-14.9-6.8-29.7-13.5-44.6-20.3c-4.1-1.9-5.1-4.5-3.2-8.7c3.8-8.5,7.7-16.9,11.5-25.4
		c0.6-0.1,1.1-0.2,1.7-0.4c10.7-4.2,21.5-8.4,32.1-12.8c2.2-0.9,3.6-0.6,5.5,0.8c3.1,2.3,6.2,4.6,9.6,6.5
		c-0.9,6.1-1.7,12.3-2.6,18.4c-1.6,11.2-3.3,22.4-4.9,33.5c-0.2,1.6-0.5,3.1-0.7,4.7c-0.3,1.9-1.4,3-3.1,3.7
		C200.8,265.2,200.4,265.2,200,265.2z"/>
	<path class="st2" d="M179.7,160.6c-3.6,0.4-7.1,1.5-10.7,2.1c-1.4,0.2-2.8,0.8-4.3,0.8c-5.8-4.3-11.5-8.7-17.3-13
		c-14.7-11.1-29.5-22.1-44.2-33.2c-3.3-2.5-3.6-5.3-0.9-8.4c7-7.9,14-15.9,21-23.8c3.1-3.5,5.7-3.5,8.9-0.2
		c19.7,20.1,39.5,40.2,59.2,60.4c1.2,1.3,1.3,1.3,2-0.3c5.7-12.7,11.5-25.4,17.2-38.1c1.4-3.1,3-3.8,6.3-2.8c2,0.6,4,1.3,6,2
		c2.6,0.9,3.7,2.6,3.3,5.3c-2,13.6-3.9,27.2-5.9,40.8c-3,0.6-6,1.3-9,1.9c-4.9-3.3-10.3-4.6-16.2-3.6
		C188.5,151.4,183.4,155,179.7,160.6z"/>
	<path class="st1" d="M211.3,154c3-0.6,6-1.3,9-1.9c7.6-1.5,15.1-3,22.7-4.6c8.9-1.8,17.8-3.7,26.7-5.5c2.4-0.5,4.5,0.6,5.7,2.7
		c1.7,3,3.3,6,4.9,9c1.5,2.8,0.9,4.4-2,5.5c-13.9,5.2-27.9,10.4-41.8,15.5c-3.4,1.3-6.9,2.5-10.3,3.9c-0.4,0.2-1.1,0.1-1.1,0.9
		c-0.5-0.5-1-0.1-1.4,0.1c-1.6,0.5-3.2,1.1-4.7,1.6c0.2-0.5,0.3-1,0.5-1.5c1.9-5.2,1.9-10.3-0.1-15.5
		C217.7,160,214.9,156.7,211.3,154z"/>
	<path class="st2" d="M228.1,182.7c4.4,4.4,8.8,8.8,13.1,13.2c1.7,1.8,3.5,3.5,5.2,5.3c1.8,1.9,2.1,4.1,0.9,6.4c-1.6,3-3.3,6-4.9,9
		c-1.3,2.4-3,2.7-5.2,1.1c-7.5-5.6-15-11.2-22.5-16.8c-0.4-0.3-0.8-0.9-1.5-0.7c-0.7-1.4-2.1-1.9-3.2-2.8c-1.5-1.4-3.5-2.3-4.8-3.9
		c3.3-1.1,6.2-2.9,8.9-5.2c0.6,0.1,1-0.2,1.5-0.4C219.8,186,224,184.4,228.1,182.7z"/>
	<path class="st3" d="M205.3,193.3c1.3,1.7,3.2,2.6,4.8,3.9c1.1,1,2.6,1.4,3.2,2.8c-0.1,1.6-0.3,3.2-0.7,4.8
		c-3.4-1.8-6.5-4.2-9.6-6.5c-1.8-1.3-3.2-1.7-5.5-0.8c-10.7,4.4-21.4,8.6-32.1,12.8c-0.5,0.2-1.1,0.3-1.7,0.4
		c1.5-3.5,3.1-6.9,4.6-10.4c3.4-1.7,7-2.8,10.5-4.1c3.5-1.4,7-2.7,10.4-4C194.5,194.5,199.8,194.9,205.3,193.3z"/>
	<path class="st3" d="M228.1,182.7c-4.2,1.7-8.3,3.3-12.5,5c-0.5,0.2-0.9,0.5-1.5,0.4c2-2,3.5-4.3,4.8-6.8c1.6-0.5,3.1-1.1,4.7-1.6
		c0.5-0.2,0.9-0.5,1.4-0.1C226.2,180.5,227.3,181.5,228.1,182.7z"/>
	<path class="st4" d="M198.7,157.7c8.1,0,14.6,6.5,14.5,14.6c0,8-6.6,14.6-14.6,14.6c-8,0-14.5-6.6-14.5-14.6
		C184.1,164,190.6,157.7,198.7,157.7z"/>
</g>
</svg>
